<?xml version="1.0" standalone="no"?><!DOCTYPE svg PUBLIC "-//W3C//DTD SVG 1.1//EN" "http://www.w3.org/Graphics/SVG/1.1/DTD/svg11.dtd"><svg t="1761116517546" class="icon" viewBox="0 0 1026 1024" version="1.1" xmlns="http://www.w3.org/2000/svg" p-id="18037" xmlns:xlink="http://www.w3.org/1999/xlink" width="200.390625" height="200"><path d="M360.128 646.515c6.844 0 6.844 0 0 0 0 0 0 6.844 0 0 0 6.844 0 6.844 0 0 0 6.844 0 6.844 0 0 0 6.844 0 6.844 0 0 0 6.844 0 0 0 0z m0-6.318s0 6.318 0 0c0 6.845 0 6.845-6.318 13.162 6.318-6.844 6.318-6.844 6.318-13.162 0 6.318 0 0 0 0zM169.543 824.465c-6.844 0-6.844 0 0 0-6.844 0-6.844 0 0 0z m-13.162 13.162s0 6.317 0 0c0 6.317 0 6.317 0 0 0 6.317 0 6.317 0 0 0 6.317 0 6.317 0 0 0 6.317 0 6.317 0 0 0 6.317 0 6.317 0 0 0 6.317 0 0 0 0z m-6.844 6.317c0 6.845 0 6.845 0 0 0 6.845 0 6.845 0 0 0 6.845 0 6.845 0 0 0 6.845 0 6.845 0 0 0 6.845 0 6.845 0 0z m-72.128 59.493s6.318 0 0 0z m0 6.317s-6.844 0 0 0c-6.844 0 0 0 0 0zM44.241 949.24c-6.317 6.844-6.317 6.844 0 0-6.317 6.844-6.317 6.844 0 0-6.317 6.844-6.317 6.844 0 0-6.317 6.844-6.317 6.844 0 0z m131.62-230.07c0 6.843-6.318 6.843-6.318 6.843l6.318-6.844z m-45.804 78.97s0 6.319 0 0c0 6.319 0 6.319 0 0 0 6.319 0 6.319 0 0 0 6.319 0 6.319 0 0 0 6.319 0 6.319 0 0 0 6.319 0 6.319 0 0 0 6.319 0 6.319 0 0 0 6.319 0 6.319 0 0z m0-59.491s0 6.844-6.844 6.844c0 6.844-6.318 6.844-6.318 13.162 0-6.844 6.318-6.844 6.318-13.162 0 0 6.844 0 6.844-6.844z m-26.324 39.486s0 6.844 0 0c0 6.844 0 6.844 0 0 0 6.844 0 6.844 0 0 0 6.844 0 6.844 0 0z m-13.162 26.324s-6.844 0 0 0c-6.844 0-6.844 0 0 0-6.844 0-6.844 6.844 0 0-6.844 6.844-6.844 6.844 0 0-6.844 6.844-6.844 0 0 0-6.844 0-6.844 0 0 0-6.844 0-6.844 0 0 0zM669.697 93.713c0-6.318 0 0 0 0zM524.916 462.248c6.318 0 0 0 0 0z m19.48-26.324s0 6.844 0 0z m0-13.162c0-6.318 0-6.318 0 0 0-6.318 0-6.318 0 0 0-6.318 0-6.318 0 0 0-6.318 0-6.318 0 0z m6.844-19.48s0 6.318 0 0z m6.317 0c0-6.844 0 0 0 0z m0 13.162c6.845 0 0 0 0 0z m6.845-26.324s-6.845 6.318 0 0z m6.317-13.162s6.845 0 0 0c6.845 0 0 0 0 0z m6.845 19.48s-6.845 0 0 0z m0-26.324s0-6.318 0 0zM696.02 199.01s0 6.844 0 0c0 6.844-6.844 6.844-6.844 6.844s6.844 0 6.844-6.844c0 6.844 0 0 0 0z m-6.844 13.162c0 6.844 0 6.844 0 0 0 6.844 0 6.844 0 0 0 6.844 0 6.844 0 0 0 6.844 0 6.844 0 0 0 6.844 0 6.844 0 0z m-6.318 6.844s0 6.318 0 0c0 6.318 0 6.318 0 0 0 6.318 0 6.318 0 0 0 6.318 0 6.318 0 0 0 6.318 0 0 0 0z m-6.844 6.318c0 6.844 0 6.844 0 0 0 6.844 0 6.844 0 0 0 6.844 0 6.844 0 0 0 6.844 0 6.844 0 0 0 6.844 0 6.844 0 0 0 6.844 0 6.844 0 0 0 6.844 0 6.844 0 0z m0 13.162c-6.318 0 0 0 0 0z m-13.162 13.162c0 6.844 0 6.844 0 0 0 6.844 0 6.844 0 0z m-6.318 6.844s0 6.318 0 0c0 6.318 0 6.318 0 0z m-26.324 52.648s0 6.317 0 0c0 6.317 0 6.317 0 0 0 6.317 0 6.317 0 0 0 6.317 0 6.317 0 0 0 6.317 0 0 0 0z m-6.844 13.162c0 6.317 0 6.317 0 0 0 6.317 0 6.317 0 0 0 6.317 0 6.317 0 0-6.844 6.317 0 6.317 0 0 0 6.317 0 6.317 0 0z m-6.844 6.317s0 6.844 0 0c0 6.844 0 6.844 0 0 0 6.844 0 6.844 0 0 0 6.844 0 6.844 0 0 0 6.844 0 6.844 0 0 0 6.844 0 6.844 0 0 0 6.844 0 0 0 0z m-6.318 20.006c0-6.844-6.844 0 0 0-6.844 0 0 0 0 0z m-6.844 6.318s-6.318 0 0 0c-6.318 0-6.318 0 0 0z m39.486-92.133c13.162-26.324 26.324-46.33 39.486-65.81v-6.318s0-6.318 6.844-6.318c0-6.844 6.844-6.844 6.844-13.162v6.318s0 6.844-6.844 6.844c0 0 0 6.844-6.844 6.844v26.324l-6.844 6.845c-6.845 6.317-13.162 20.006-13.162 26.324 0 0 0 6.844-6.845 6.844-5.79-1.053-5.79-1.053-12.635 5.265 6.844-6.318 6.844 0 0 0 0 0 0 6.844-6.844 13.161v6.318c-6.844 6.844-13.162 13.162-13.162 20.006-6.844 6.845-13.162 20.007-26.324 33.168 13.162-13.161 20.006-26.323 26.324-33.168 6.844-6.844 6.844-13.162 13.162-20.006 0.526-6.318 0.526-12.635 6.844-19.48z m59.492-98.452c0 6.318 0 6.318 0 0 0 6.318 0 6.318 0 0 0 6.318 0 6.318 0 0 0 6.318 0 6.318 0 0z m-39.486 105.296s0 6.317 0 0zM537.551 462.248s0-6.318 0 0c0-6.318 0-6.318 0 0 0-6.318 0-6.318 0 0 0-6.318 0 0 0 0z m0-6.318c6.845 0 6.845 0 0 0z m13.162-13.162s0-6.844 0 0c0-6.844 0-6.844 0 0z m6.844-13.162c0 6.318 0 6.318 0 0-6.844 6.318 0 6.318 0 0z m0 0c0 6.318 0 6.318 0 0 0 6.318 0 6.318 0 0 0 6.318 0 6.318 0 0 0 6.318 0 6.318 0 0 0 6.318 0 6.318 0 0 0 6.318 0 6.318 0 0 0 6.318 0 6.318 0 0z m6.845 0c0-6.844 0-6.844 0 0 0-6.844 0-6.844 0 0 0-6.844 0-6.844 0 0 0-6.844 0-6.844 0 0z m0-6.844c6.317-6.318 6.317-6.318 0 0 6.317-6.318 6.317-6.318 0 0z m6.317-6.318c0-6.844 0-6.844 0 0 0-6.844 0-6.844 0 0 6.845-6.844 6.845-6.844 0 0 6.845-6.844 6.845-6.844 0 0 6.845-6.844 0-6.844 0 0z m13.162-26.324c6.845 0 6.845 0 0 0 6.845 0 6.845 0 0 0 6.845 0 6.845 0 0 0z m20.007-20.006s0-6.318 0 0c0-6.318 0-6.318 0 0 0-6.318 0-6.318 0 0z m0-6.318c6.317 0 0 0 0 0z m0 0s6.317-6.844 0 0c6.317-6.844 6.317 0 0 0z m6.317-6.844s0-6.318 0 0c6.845-6.318 6.845-6.318 0 0 6.845-6.318 6.845-6.318 0 0 0-6.318 0 0 0 0z m13.162-19.48s0-6.844 0 0c0-6.844 0-6.844 0 0 0-6.844 0-6.844 0 0 0-6.844 0-6.844 0 0 0-6.844 0-6.844 0 0z m6.844-13.161s0-6.845 0 0c0-6.845 0-6.845 0 0 0-6.845 0-6.845 0 0 0-6.845 0 0 0 0z m6.318-6.845c0-6.317 0-6.317 0 0 0-6.317 0-6.317 0 0 0-6.317 0-6.317 0 0 0-6.317 0-6.317 0 0z m6.844-6.317c0-6.845 0-6.845 0 0 0-6.845 0-6.845 0 0 0-6.845 0-6.845 0 0 0-6.845 0-6.845 0 0z m0-6.845c0-6.317 0-6.317 0 0 0-6.317 0-6.317 0 0z m6.318-6.317s0-6.845 0 0c0-6.845 0-6.845 0 0 0-6.845 0-6.845 0 0z m6.844-6.845c-13.162 13.162-20.006 26.324-26.324 39.486-6.844 6.844-6.844 13.162-13.161 20.006 6.844-6.844 6.844-13.162 13.161-20.006 6.318-13.162 13.162-26.324 26.324-39.486z m39.486-19.48s-6.844 0 0 0c-6.844 0 0 0 0 0z m243.233 506.473h13.162c-6.318 6.844-6.318 0-13.162 0z m-223.753-58.966l-6.844 13.162s118.457 52.648 171.105 72.654c-33.168-6.844-92.134-26.324-92.134-26.324s131.62 72.654 197.43 92.134c-26.324-6.844-65.81-13.162-72.654-13.162-13.162 0-256.922-78.972-500.154-230.071v6.844c-6.845-6.844-13.162-13.162-20.007-13.162-6.844 6.844-6.844 13.162-13.162 20.006v-13.162c0-6.844 6.318-6.844 6.318-13.162 0 6.845-6.318 6.845-6.318 13.162 0-6.844 6.318-6.844 6.318-13.162-6.318 6.845-13.162 20.007-20.006 26.324 0 6.845-6.844 6.845-6.844 13.162 0-6.844 6.844-6.844 6.844-13.162 6.844-6.844 13.162-20.006 20.006-26.324v6.845l-6.318 6.844v13.162s0 6.844-6.844 6.844l-6.844 6.844v6.845c-6.844 13.161-13.162 20.006-20.006 33.168l-6.844 6.844 6.844-6.844c6.318-13.162 13.162-20.007 20.006-33.168 0 0 0-6.845 6.844-6.845 0-6.844 6.844-6.844 6.844-13.162 0 0 6.318-6.844 6.318-13.162-6.318-6.844-6.318-13.162 0-13.162-6.318 0-6.318 6.845-6.318 6.845 0 6.844-6.844 6.844-6.844 13.162v-6.845s0 6.845-6.844 6.845c0-6.845 6.844-6.845 6.844-13.162l6.844-6.845s0 6.845-6.844 6.845c0 6.844-6.844 6.844-6.844 13.162-13.162 13.162-20.006 33.168-33.168 46.33l-6.844 6.844 6.844-6.844s0-6.845 6.844-6.845c6.844-13.161 20.006-26.323 26.324-39.485 0-6.845 6.844-6.845 6.844-13.162 0 0 0-6.845 6.844-6.845h-5.79l-13.163 13.162c-6.844 13.162-13.162 20.007-20.006 26.324 0 6.845-6.844 6.845-6.844 13.162 0-6.844 6.844-6.844 6.844-13.162 6.844-6.844 13.162-20.006 20.006-26.324 0 6.845-6.844 13.162-13.162 20.007l-6.318 6.844v6.844s-6.844 6.844-6.844 13.162l-6.317 6.844c-6.845 6.844-6.845 13.162-13.162 20.006l-6.318 6.845-13.162 13.161s0 6.845-6.318 6.845c0 0 0 6.844-6.844 6.844 0 0 0 6.844-6.844 6.844l-6.845 6.844c0 6.845-6.317 13.162-13.161 20.007v6.844c0 6.844-6.845 6.844-6.845 13.162l-6.317 1.053v6.844c-6.845 6.844-6.845 13.162-13.162 20.006 0 0 0 6.844-6.845 6.844-6.844 13.162-13.162 20.006-20.006 33.168-6.844 6.845-6.844 13.162-13.162 20.007s-6.844 13.162-13.162 13.162c6.318-6.845 13.162-20.007 20.007-26.324 0 0 0-6.845 6.317-6.845 0-6.844 6.844-6.844 6.844-13.162v-13.162s0-6.844 6.845-6.844c6.317-6.844 6.317-13.162 13.162-20.006 0 0 0-6.844 6.317-6.844 0 0 0-6.844 6.845-6.844 0 0 0-6.845 6.844-6.845l6.844-6.844 6.318-6.844c6.844-6.844 6.844-13.162 13.162-20.006 13.162-20.006 26.324-33.168 39.486-52.648l6.844-6.844c6.844-6.844 6.844-13.162 13.162-20.006-13.162 6.844-20.006 13.162-20.006 13.162-6.845 6.844-13.162 20.006-20.007 26.324l-6.844 6.844c0 6.844-6.318 6.844-6.318 13.162 0 0 0 6.844-6.844 6.844-6.844 6.844-6.844 13.162-13.162 13.162-6.844 6.844-6.844 13.162-13.162 20.006 0 6.844-6.844 6.844-6.844 13.162l-6.844 6.844-13.162 13.162c0 6.844-6.844 6.844-6.844 13.162-6.318 6.844-6.318 13.162-13.162 20.006-6.844 6.844-6.844 13.162-13.162 20.006 0 6.845-6.844 6.845-6.844 13.162-6.318 13.162-13.162 20.007-26.324 33.169v-6.845s0 6.845-6.318 6.845l-6.844 6.844s0 6.844-6.318 6.844v-6.844c0-6.844 6.318-13.162 13.162-20.006v6.844l-13.162 13.162c-6.844 6.844-6.844 13.162-13.162 20.006l-6.844 6.844v-6.844c6.844-6.844 6.844-13.162 13.162-20.006 6.318-6.844 6.318-13.162 13.162-20.006l6.844-13.162c6.318-6.845 13.162-13.162 13.162-20.007l-13.162 13.162-6.844 6.845c0 6.844-6.318 6.844-6.318 13.162l-6.844 6.844c-6.318 6.844-13.162 20.006-19.48 26.324l-6.844 6.844v-7.37c0-6.845 6.844-6.845 6.844-13.163 0-6.844 6.844-6.844 6.844-13.162l6.845-6.844c6.317-6.844 6.317-13.162 6.317-13.162s0-6.844 6.844-6.844v13.162l-6.844 6.844s0 6.844-6.317 6.844v6.845l-6.845 6.844v6.844c-6.844 6.844-6.844 13.162-13.162 20.006 0 0 0 6.844-6.844 6.844 0 0 0 6.845-6.844 6.845l-6.844 6.844c-6.845 6.844-6.845 13.162-13.162 20.006s-13.162 20.006-20.006 26.324l-6.845 6.844c0 6.844-6.844 6.844-13.162 13.162v-6.844s0-6.844 6.845-6.844l6.844-6.845c0-6.844 6.844-6.844 6.844-13.162 13.162-20.006 26.324-33.168 39.486-52.647 0-6.845 6.844-6.845 6.844-13.162 20.006 0 20.006-6.845 26.324-13.162 0-6.845 6.318-6.845 6.318-13.162 6.844-6.844 6.844-13.162 13.162-20.006 13.162-20.007 26.324-33.169 32.641-52.648 20.007-26.324 33.169-52.648 52.648-78.972 13.162-6.844 20.006-20.006 26.324-26.324 6.318-6.844 6.318-13.162 13.162-20.006h-6.844v-6.844c-13.162 13.162-13.162 26.324-26.324 33.168l-6.844 6.844v-6.844l-6.318 6.844s0 6.844-6.844 6.844l-6.844 6.844v6.845c-6.845 6.844-6.845 13.162-13.162 20.006 0 6.844-6.845 6.844-6.845 13.162-6.317 6.844-6.317 13.162-13.162 20.006 0 6.844-6.317 6.844-6.317 13.162 0-6.844 6.317-6.844 6.317-13.162l20.007-20.006c-6.845 0-13.162 13.162-13.162 13.162h-6.845s0 6.844-6.317 6.844l6.317-6.844c6.845-6.844 6.845-6.844 6.845-13.162s0-6.844 6.844-6.844l6.318-6.845s0 6.845-6.318 6.845v6.844c-6.844 0-13.162 6.844-20.006 13.162-6.318 6.844-6.318 13.162-13.162 13.162-6.318 6.844-6.318 13.162-13.162 13.162 0 6.844-6.844 6.844-6.844 13.162-6.318 6.844-13.162 20.006-19.48 33.168-6.844 6.844-6.844 13.162-13.162 20.006 0 0 6.844-6.844 6.844-13.162 6.844-6.844 6.844-13.162 13.162-20.006 0 0 0-6.844 6.318-6.844 0-6.845 6.844-6.845 6.844-13.162-6.844 6.844-13.162 20.006-20.006 26.324v-6.845c6.844-6.844 6.844-6.844 6.844-13.162v-13.162l-6.844 6.845s0 6.844-6.844 6.844c-6.845 6.844-6.845 13.162-13.162 20.006 6.844-6.844 6.844-13.162 13.162-20.006h-6.845v-6.844c20.007 6.844 20.007 13.162 13.162 20.006-6.844 6.844-13.162 13.162-13.162 20.006 6.845-6.844 13.162-13.162 13.162-20.006 6.845-6.844 6.845-13.162 13.162-13.162 0 0 0-6.844 6.318-6.844 0-6.845 6.844-6.845 6.844-13.162-6.844 6.844-6.844 13.162-13.162 20.006l-19.48 20.006c-6.844 6.844-6.844 13.162-13.161 20.006 0 0-6.845 6.844-6.845 13.162l-6.844 6.844s0-6.844 6.844-6.844c0 0 0-6.844 6.845-6.844 6.844-6.844 13.162-20.006 20.006-26.324 0 0 0 6.844-6.844 6.844 0 6.844-6.845 6.844-6.845 13.162-6.844 6.844-6.844 13.162-13.162 20.006-6.317 13.162-13.161 20.007-26.323 33.168 0 0 0 6.845-6.845 6.845 0 6.844-6.844 6.844-6.844 13.162l10.003-10.53s0-6.844 6.844-6.844v-6.844l-6.844 6.844-6.318 6.844-6.844 6.844-6.844 6.845-20.006 20.006-6.318 6.844c0-6.844 6.318-6.844 6.318-13.162 6.844-6.844 6.844-13.162 13.162-20.006 6.844-6.844 6.844-13.162 13.162-20.006 0-6.845 6.844-6.845 6.844-13.162v-6.845l6.318-6.844 6.844-6.844v-6.318c6.844-6.844 6.844-6.844 6.844-13.162 6.844-13.162 20.006-26.324 26.324-39.486 6.844-6.844 13.162-20.006 20.006-26.323 0-6.845 6.318-6.845 6.318-13.162 0 0 0-6.845 6.318-6.845 0 0 0-6.844 6.844-6.844 0-6.844 6.318-6.844 6.318-13.162 0-6.844 6.317-13.162 13.162-13.162v-6.844s0 6.844-6.318 6.844c-6.318 6.844-6.318 13.162-13.162 13.162-6.844 6.844-6.844 13.162-13.162 20.006 20.006-33.168 39.486-59.492 58.966-92.133 6.844-6.844 13.162-20.006 20.006-26.324l6.844-6.844c-6.844 6.844-13.162 13.162-20.006 26.324-6.844 6.844-6.844 13.161-13.162 20.006 0 0 0 6.844-6.844 6.844 20.006-13.162 13.162-6.844 13.162 0-6.318 13.162-13.162 20.006-26.324 33.168v-6.844c-6.845 6.844-13.162 20.006-20.007 26.324 0-6.845 6.318-6.845 6.318-6.845l-6.318 6.845c6.318-13.162 13.162-20.006 20.007-33.168 0 0 0-6.845 6.317-6.845v-6.844c0-6.844 6.318-6.844 6.318-13.162v-5.791l6.844-6.844 6.845-6.844c0-6.845 6.317-6.845 6.317-13.162s6.845-6.845 6.845-6.845c0-6.844 6.844-6.844 6.844-13.162 0 0 0-6.844 6.317-6.844 0 0 0-6.844 6.845-6.844 6.844-6.844 13.162-20.006 20.006-33.168 0 0 0-6.844 6.844-6.844v-13.162c0 6.844 0 6.844-6.844 13.162v6.844c-6.844 6.844-13.162 20.006-20.006 26.324 6.844-6.844 13.162-13.162 13.162-20.006 6.844-6.845 6.844-13.162 13.162-20.007 6.844-13.162 20.006-26.324 26.323-39.485 0-6.845 6.318-6.845 6.318-13.162 0 0 0-6.845 6.844-6.845l-6.844-6.844c-6.318 6.844-13.162 20.006-20.006 26.324-6.844 6.844-13.162 13.162-13.162 20.006l-6.844 6.844c-6.844 13.162-13.162 20.007-20.006 26.324-6.844 13.162-13.162 20.007-20.006 26.324l-6.318 6.844s0 6.845-6.844 6.845c0 6.844-6.845 6.844-6.845 13.162-6.317 6.844-6.317 13.162-13.162 20.006l-6.317 6.844c-6.845 6.844-13.162 13.162-13.162 20.006v13.162c0 6.844-6.318 6.844-6.318 13.162-6.318 6.844-6.318 13.162-13.162 20.006 0 6.844-6.844 6.844-6.844 13.162 0 6.844-6.844 6.844-6.844 13.162-6.845 6.844-6.845 13.162-13.162 20.006 0 6.845-6.845 6.845-6.845 13.162 0-6.844 6.845-6.844 6.845-13.162 6.844-6.844 6.844-13.162 13.162-20.006 0-6.844 6.844-6.844 6.844-13.162v-6.844 6.844s0-6.844 6.844-6.844v-5.791s0-6.844 6.318-6.844v-6.845c0-6.844 6.318-13.162 13.162-20.006 0 0 0 6.844-6.318 6.844 0 0 0-6.844 6.318-6.844v-13.162c6.844-13.162 13.162-20.006 20.006-33.168 0 0 0-6.844 6.318-6.844 0 0 0-6.844 6.317-6.844 6.845-6.845 6.845-13.162 13.162-20.007 0 0 6.318-6.844 6.318-13.161l6.844-6.845s0-6.844 6.845-6.844c6.317-6.844 13.161-20.006 19.48-26.324 0-6.844 6.843-13.162 13.161-20.006 0 0 0-6.844 6.318-6.844 0 0 0-6.844 6.844-6.844l6.318-6.845s0-6.844 6.844-6.844c0-6.844 6.844-6.844 6.844-6.844s0-6.844 6.318-6.844v-6.845c0 6.845-6.318 6.845-6.318 13.162 0 0 0 6.845-6.844 6.845l-39.486 39.486c-6.318 6.844-6.318 13.161-13.162 13.161v6.845s0 6.844-6.317 6.844l-6.845 6.844c-6.844 13.162-6.844 13.162-13.162 20.006 0 6.845-6.844 13.162-6.844 13.162v6.844c-6.844 6.845-6.844 13.162-13.162 20.007l-6.844 6.844c0 6.844-6.318 13.162-13.162 13.162l-6.318 6.844v6.844c-6.844 6.844-6.844 13.162-13.162 20.006 0-6.844 6.845-6.844 6.845-13.162 0 0 0-6.844 6.317-6.844 0 0 0-6.844 6.844-6.844v-6.844s0-6.844 6.318-6.844l6.318-6.845s0-6.844 6.844-6.844c0 0 0-6.844 6.318-6.844-6.318-6.844 0-20.006 6.844-26.324 0 0 0-6.844 6.318-6.844 6.844-13.162 13.162-20.006 20.006-33.168l8.424-2.633 20.006-20.006s0-6.844 6.318-6.844c6.844-13.162 13.162-26.324 13.162-33.168 0 0 6.317-6.844 6.317-13.162 0 0 0-6.844 6.844-6.844C162.7 449.085 64.247 350.635 4.755 238.495l13.162-26.324 33.168 6.844 6.318-20.006h26.324s-39.486-26.324-26.324-39.486 39.486-6.844 39.486-6.844l39.486 20.006 33.168 6.844s6.844-26.324 138.464 98.978c33.168 26.324 59.492 52.648 78.972 72.654 20.006-13.162 33.168-26.324 39.485-46.33 0 0 0-6.844 6.845-6.844 0-6.845 6.844-6.845 6.844-13.162 13.162-13.162 20.006-33.168 33.168-46.33 0-6.845 6.844-6.845 6.844-13.162 6.844-13.162 13.162-19.48 20.006-33.168 13.162-26.324 33.168-52.648 46.33-72.128 6.845-6.844 6.845-13.162 13.162-20.006 0 0 0-6.844 6.845-6.844 0 0 0-6.845 6.844-6.845 6.844-13.162 6.844-20.006 13.162-20.006 6.844-6.844 6.844-13.162 13.162-20.006C606.52 33.168 619.682 20.006 626 6.844L632.844 0v6.844s-6.844 6.844 0 6.844v14.215s0 6.845-6.844 6.845v6.844l-6.845 6.844L626 41.592l6.844-6.844 3.685-6.845s0 6.845 6.844 0c0 0 0 6.845-6.844 6.845 0 6.844 0 6.844-6.844 13.162V61.07h13.162l6.844-6.844 6.844-6.844v6.844c0 6.844 0 0 6.845 0 0 0 6.844-13.162 13.162-13.162v6.845s0-6.845 6.844-6.845v-6.317V47.91s-6.844 6.844 0 6.844V74.76l6.844-6.844v6.844l-6.844 6.844-6.844 6.844v13.162s-6.845 6.844 0 6.844l6.844-6.844s0-6.844 6.844-6.844c0-6.844 6.844-6.844 6.844-13.162v6.844s-6.844 6.845-6.844 13.162v5.265c6.844-6.844 13.162-6.844 20.006-20.006l5.265-6.318 6.844-6.844 6.844-6.844c0 6.844 6.845 0 6.845 0v6.844s0 6.844-6.845 6.844v6.844h6.845v19.48h6.844c0 6.844-6.844 6.844-6.844 13.162v13.162l6.844-6.318 6.844 6.318v26.324c0 6.318-6.844 6.318-6.844 13.162v6.844s0 6.844-6.844 6.844c0 6.318-6.845 6.318-6.845 13.162-6.844 13.162-20.006 26.324-26.324 39.486 0 0 0 6.844-6.844 6.844-45.803 6.845-52.648 13.162-58.965 26.324 0 6.844-6.845 13.162-13.162 20.006l-6.844 6.845c-26.324 39.485-46.33 72.654-72.654 112.14-13.162 20.006-26.324 39.485-45.804 59.491 6.844 6.845 13.162 13.162 20.006 13.162 0 0 0-6.317 6.844-6.317l6.845-6.845s0-6.844 6.844-6.844l6.844-6.844 13.162-13.162c6.844-6.844 6.844-13.162 13.162-13.162-6.844-13.162 0-20.006 6.844-33.168 0 0 6.844-6.844 6.844-13.162l6.845-6.844s0-6.844 6.844-6.844c13.162-26.324 33.168-52.648 46.33-72.128 0 0 0-6.844 6.844-6.844 0-6.844 6.844-13.162 13.162-20.006v-6.844 6.844s0 6.317-6.844 6.317 0-6.317 6.844-6.317c0 0 0-6.844 6.844-6.844 6.844-6.845 13.162-20.007 20.006-26.324 0-6.845 6.845-6.845 6.845-13.162 0-6.845 6.844-6.318 6.844-13.162 0 0 6.844-6.318 6.844-13.162s6.844-6.844 6.844-13.162c-6.844 6.844-6.844 0 0-6.844 0 0 0-6.318 6.844-6.318v-6.844s0-6.845 6.845-6.845v6.845c6.844-6.845 6.844 0 6.844-6.845 0 0 0 6.845-6.844 6.845-6.845 6.844-6.845 13.162-13.162 20.006v6.318s0 6.844-6.845 6.844v6.844c-6.844 13.162-13.161 26.324-20.006 33.168-6.844 13.162-20.006 26.324-26.324 45.804 13.162-13.162 20.007-33.168 26.324-46.33 0 0 0-6.845 6.845-6.845v6.845c-6.845 13.162-13.162 20.006-20.007 33.168-6.844 6.844-6.844 13.162-13.162 20.006 0 0 0 6.844-6.844 6.844 0 6.844-6.844 6.844-6.844 13.162-20.006 13.162-33.168 26.324-39.486 45.804l-13.162 13.162-6.844 6.844c0 13.162-6.844 13.162-13.162 20.006 0 6.844-6.844 6.844-6.844 13.162 0 0 0 6.844-6.844 6.844-6.845 13.162-13.162 20.006-13.162 26.324 0 0 0 6.844-6.845 6.844 0 6.845-6.844 6.845-6.844 13.162 0 0 0 6.318-6.844 6.318 0 0 0 6.844-6.844 6.844l-6.844 6.844c92.133 78.972 236.915 191.112 263.239 203.747l-6.845 20.007s105.296 65.81 157.944 72.654c-41.065-8.424-192.691-34.748-219.015-61.072z m-348.529-92.134c6.318 0 6.318 0 0 0 6.318 0 6.318 0 0 0z m-210.59 282.72c0 6.843 0 6.843 0 0 0 6.843 0 6.843 0 0 0 6.843 0 6.843 0 0 0 6.843 0 6.843 0 0z m-13.163 13.161c6.318 0 6.318-6.318 0 0z m32.642-39.486l-6.318 6.845-6.844 6.317v-6.844c6.844 0.527 6.844-6.318 13.162-6.318-6.318 0 0 0 0 0z m0-6.317c0 6.317 0 6.317 0 0z m78.972-276.401c-6.318 6.317-6.318 6.317 0 0l-6.845 6.844 6.845-6.844c-6.318 6.317 0 0 0 0zM116.895 751.81c0 6.844 0 6.844 0 0z m0 0s6.318-6.318 0 0z m545.958-480.148c6.844-6.844 0 0 0 0zM485.43 449.086s0 6.844 0 0z m13.162-19.48c0 6.844-6.844 13.162-13.162 20.006 6.318-6.844 13.162-13.688 13.162-20.006 0 0 6.318 0 0 0 6.318-6.844 6.318 0 0 0z m13.162 19.48c0 6.318-6.844 6.318-6.844 13.162l-6.845 6.844c6.845-6.844 6.845-13.162 13.689-20.006zM899.768 817.62s-13.162 0-20.006-6.845c20.006 0.527 26.85 6.845 20.006 6.845z m105.296 59.492c-6.844 0-6.844 0-13.162-6.845 26.324 13.162 46.33 13.162 13.162 6.845z m-295.88-717.59c0-6.318 0 0 0 0zM676.014 14.74s6.844 0 0 0c6.844 0 0 0 0 0z m-13.162 13.162c0-6.317 0-6.317 0 0 0-6.317 0 0 0 0zM4.755 1015.05c-6.317 6.844-6.317 0 0 0z m131.62-85.29s6.844 0 0 0c6.844 0 6.844 0 0 0 6.844 0 6.844 0 0 0 6.844 0 6.844 0 0 0z m13.162 6.318c-6.318 0-6.318 0 0 0-6.318 0-6.318 0 0 0-6.318 0-6.318 0 0 0-6.318 0-6.318 0 0 0-6.318 0-6.318 0 0 0z m0-13.162c0-6.318 0-6.318 0 0 0-6.318 0-6.318 0 0 0-6.318 0-6.318 0 0z m13.162-13.162s0 6.844 0 0z m39.486-26.324c-6.318 0-6.318 0 0 0-6.318 0-6.318 0 0 0z m13.162-19.48c-6.318 0-6.318 6.318 0 0-6.318 6.318-6.318 6.318 0 0-6.318 6.318-6.318 6.318 0 0z m6.844-20.006s-6.844 0 0 0c-6.844 0-6.844 0 0 0-6.844 0-6.844 0 0 0z m0 6.845s0-6.845 0 0c6.318-6.845 6.318-6.845 0 0 6.318-6.845 6.318-6.845 0 0 0-6.845 0 0 0 0z m6.318-13.162c0 6.317 0 6.317 0 0 0 6.317 0 6.317 0 0 0 6.317 0 6.317 0 0 0 6.317 0 6.317 0 0 0 6.317 0 6.317 0 0 0 6.317 0 6.317 0 0z m0 0c6.844-13.162 13.162-20.006 20.006-26.324 0-6.844 6.844-13.162 13.162-13.162-6.844 6.844-6.844 13.162-6.844 13.162-13.162 6.318-19.48 19.48-26.324 26.324z m20.006-46.33c-6.844 0 0 0 0 0z m32.641-52.648s0 6.844 0 0z m-58.965 98.978c13.162-20.006 26.324-33.168 39.486-59.492 6.317-6.845 13.162-13.162 13.162-26.324 0-6.844 6.844-6.844 6.844-13.162 0 6.844-6.844 6.844-6.844 13.162l-6.845 6.844c0 6.844-6.317 6.844-6.317 13.162v6.844l-39.486 58.966z m45.803-59.492c0-6.845 6.845-6.845 6.845-13.162 0 6.844 0 6.844-6.845 13.162l-6.317 6.844c6.317 0 6.317-6.844 6.317-6.844z m26.324-52.648c0 6.844 0 6.844 0 0 0 6.844 0 6.844 0 0 0 6.844 0 6.844 0 0 0 6.844 0 6.844 0 0 0 6.844 0 6.844 0 0z m0 0c6.318-13.162 13.162-20.006 26.324-33.168 6.845-6.844 13.162-13.162 20.006-26.324-6.844 6.844-13.161 13.162-20.006 26.324-13.162 13.688-19.48 20.006-26.324 33.168z m33.169-32.642c-20.007 26.324-33.169 52.648-52.648 72.654 19.48-20.006 32.641-46.33 52.648-72.654z m-33.169 52.648c0 6.318 0 6.318 0 0-6.317 6.318 0 0 0 0z m0 19.48s-6.317 0 0 0z m0-26.324s6.845 0 0 0c6.845 0 0 0 0 0z m13.162-6.318c-6.317 0-6.317 0 0 0z m6.845-13.162c-6.845 0 0 0 0 0z m6.317-6.844s0-6.318 0 0z m0-6.318c6.845 0 0 0 0 0z m6.845-6.844s0-6.318 0 0c6.317-6.318 0 0 0 0z m0 52.648c6.317 0 0 0 0 0zM340.648 686c-6.844 0-6.844 0 0 0-6.844 6.844-6.844 6.844 0 0-6.844 6.844-6.844 6.844 0 0-6.844 6.844-6.844 6.844 0 0-6.844 0-6.844 0 0 0z m0-6.318s0 6.318 0 0z m0-6.844c6.318 0 6.318 0 0 0 6.318 0 6.318 0 0 0 6.318 0 6.318 0 0 0z m13.162-6.318c-6.844 0-6.844 0 0 0-6.844 0-6.844 0 0 0-6.844 0-6.844 0 0 0z m0-6.844c6.318 0 6.318 0 0 0z m0 0s0-6.844 6.845-6.844l-6.845 6.844c6.318 0 0 0 0 0 0 6.844 0 6.844 0 0l-6.844 6.844 6.844-6.844z m32.642 20.006s0-6.844 0 0c0-6.844 0-6.844 0 0 0-6.844 0-6.844 0 0 0-6.844 0-6.844 0 0 0-6.844 0-6.844 0 0 0-6.844 0-6.844 0 0z m0-6.844l-6.844 6.844c6.844 0 6.844-6.844 6.844-6.844z m6.844-6.318c0-6.844 0 0 0 0z m13.162-26.324c-6.844 6.318 0 0 0 0z m-6.844 13.162l6.844-6.844-6.844 6.844c0 6.845-6.844 6.845-6.844 13.162 0.526-6.844 6.844-13.162 6.844-13.162z" fill="#d81e06" p-id="18038"></path></svg>